<?xml version="1.0" encoding="iso-8859-1"?>
<!-- Generator: Adobe Illustrator 18.0.0, SVG Export Plug-In . SVG Version: 6.00 Build 0)  -->
<!DOCTYPE svg PUBLIC "-//W3C//DTD SVG 1.1//EN" "http://www.w3.org/Graphics/SVG/1.1/DTD/svg11.dtd">
<svg version="1.1" id="Capa_1" xmlns="http://www.w3.org/2000/svg" xmlns:xlink="http://www.w3.org/1999/xlink" x="0px" y="0px"
	 viewBox="0 0 454.521 454.521" style="enable-background:new 0 0 454.521 454.521;" xml:space="preserve">
<g>
	<path d="M402.126,127.298L402.126,127.298c-28.227-7.713-57.473,8.978-65.188,37.208l-27.317,99.971H206.712
		c-3.979,0-7.794,1.58-10.606,4.394l-95.048,95.048c-10.024,10.024-15.546,23.353-15.546,37.529s5.521,27.505,15.545,37.529
		c10.024,10.024,23.353,15.545,37.529,15.545s27.505-5.521,37.529-15.545l68.352-68.352h86.294
		c35.265,0,66.387-23.758,75.683-57.775l32.89-120.364c3.736-13.676,1.925-27.987-5.103-40.3
		C427.203,139.874,415.801,131.035,402.126,127.298z M238.254,340.625c-3.979,0-7.794,1.58-10.606,4.394l-72.745,72.745
		c-8.998,8.996-23.638,8.996-32.632,0c-8.997-8.997-8.997-23.636,0-32.632l90.654-90.655h108.147c6.762,0,12.688-4.523,14.47-11.046
		l30.336-111.017c3.354-12.272,16.065-19.527,28.341-16.177c5.944,1.625,10.901,5.468,13.957,10.819
		c3.055,5.354,3.843,11.575,2.218,17.521l-32.89,120.364c-5.741,21.01-24.963,35.684-46.743,35.684H238.254z"/>
	<path d="M394.205,115.006c31.707,0,57.503-25.796,57.503-57.503S425.912,0,394.205,0c-31.708,0-57.504,25.796-57.504,57.503
		S362.497,115.006,394.205,115.006z M394.205,30c15.165,0,27.503,12.338,27.503,27.503s-12.338,27.503-27.503,27.503
		c-15.166,0-27.504-12.338-27.504-27.503S379.039,30,394.205,30z"/>
	<path d="M133.06,277.247c4.289,0,7.766-3.477,7.766-7.766v-47.273c0-6.919-8.365-10.384-13.257-5.492l-13.062,13.062
		c-0.079-0.082-0.147-0.171-0.228-0.252L28.42,143.668c-5.857-5.857-15.355-5.857-21.213,0c-5.858,5.857-5.858,15.355,0,21.213
		l85.858,85.858c0.081,0.081,0.17,0.149,0.252,0.228L80.295,263.99c-4.892,4.892-1.427,13.257,5.491,13.257H133.06z"/>
</g>
<g>
</g>
<g>
</g>
<g>
</g>
<g>
</g>
<g>
</g>
<g>
</g>
<g>
</g>
<g>
</g>
<g>
</g>
<g>
</g>
<g>
</g>
<g>
</g>
<g>
</g>
<g>
</g>
<g>
</g>
</svg>
