<svg class="svg-icon" style="width: 1em; height: 1em;vertical-align: middle;fill: currentColor;overflow: hidden;" viewBox="0 0 1024 1024" version="1.1" xmlns="http://www.w3.org/2000/svg"><path d="M457.085 459.284c1.929-1.916 19.923-21.075 26.705-27.66 14.06-13.655 27.832-24.354 43.571-32.82 19.096-10.27 36.569-30.294 46.56-52.11 4.225-9.226 6.559-17.722 6.855-23.683-15.19-10.698-38.455-18.393-61.105-19.65-25.435-1.413-45.52 5.208-56.305 18.15-13.068 15.682-20.816 45.463-20.13 78.19 0.525 25.07 6.072 47.618 13.277 60.148 0.188-0.184 0.378-0.372 0.572-0.565z m-17.67-157.732c38.406-46.087 125.21-32.103 165.034 0 22.53 18.162-7.576 95.266-62.32 124.71-54.743 29.444-73.753 91.316-102.714 62.355-33.394-33.394-39.538-139.62 0-187.065z m125.3 155.533c1.917 1.929 21.076 19.923 27.662 26.705 13.654 14.06 24.353 27.832 32.819 43.571 10.27 19.096 30.294 36.569 52.11 46.56 9.226 4.225 17.722 6.559 23.683 6.855 10.698-15.19 18.393-38.455 19.65-61.105 1.413-25.435-5.208-45.52-18.15-56.305-15.682-13.068-45.463-20.816-78.19-20.13-25.07 0.525-47.618 6.072-60.148 13.277 0.184 0.188 0.372 0.378 0.565 0.572z m157.733-17.67c46.087 38.406 32.103 125.21 0 165.034-18.162 22.53-95.266-7.576-124.71-62.32-29.444-54.743-91.316-73.753-62.355-102.714 33.394-33.394 139.62-39.538 187.065 0z m-155.533 125.3c-1.929 1.917-19.923 21.076-26.705 27.662-14.06 13.654-27.832 24.353-43.571 32.819-19.096 10.27-36.569 30.294-46.56 52.11-4.225 9.226-6.559 17.722-6.855 23.683 15.19 10.698 38.455 18.393 61.105 19.65 25.435 1.413 45.52-5.208 56.305-18.15 13.068-15.682 20.816-45.463 20.13-78.19-0.525-25.07-6.072-47.618-13.277-60.148-0.188 0.184-0.378 0.372-0.572 0.565z m17.67 157.733c-38.406 46.087-125.21 32.103-165.034 0-22.53-18.162 7.576-95.266 62.32-124.71 54.743-29.444 73.753-91.316 102.714-62.355 33.394 33.394 39.538 139.62 0 187.065z m-125.3-155.533c-1.917-1.929-21.076-19.923-27.662-26.705-13.654-14.06-24.353-27.832-32.819-43.571-10.27-19.096-30.294-36.569-52.11-46.56-9.226-4.225-17.722-6.559-23.683-6.855-10.698 15.19-18.393 38.455-19.65 61.105-1.413 25.435 5.208 45.52 18.15 56.305 15.682 13.068 45.463 20.816 78.19 20.13 25.07-0.525 47.618-6.072 60.148-13.277a142.54 142.54 0 0 0-0.565-0.572z m-157.733 17.67c-46.087-38.406-32.103-125.21 0-165.034 18.162-22.53 95.266 7.576 124.71 62.32 29.444 54.743 91.316 73.753 62.355 102.714-33.394 33.394-139.62 39.538-187.065 0z"  /></svg>