<?xml version="1.0" encoding="iso-8859-1"?>
<!-- Generator: Adobe Illustrator 19.0.0, SVG Export Plug-In . SVG Version: 6.00 Build 0)  -->
<svg version="1.1" id="Layer_1" xmlns="http://www.w3.org/2000/svg" xmlns:xlink="http://www.w3.org/1999/xlink" x="0px" y="0px"
	 viewBox="0 0 295.239 295.239" style="enable-background:new 0 0 295.239 295.239;" xml:space="preserve">
<g>
	<g>
		<g>
			<path d="M66.667,247.62c-7.876,0-14.286,6.41-14.286,14.286c0,7.876,6.41,14.286,14.286,14.286
				c7.876,0,14.286-6.41,14.286-14.286C80.952,254.03,74.543,247.62,66.667,247.62z M66.667,266.668
				c-2.629,0-4.762-2.133-4.762-4.762c0-2.629,2.133-4.762,4.762-4.762c2.629,0,4.762,2.133,4.762,4.762
				C71.429,264.535,69.295,266.668,66.667,266.668z"/>
			<path d="M280.953,266.668c11.805,0,14.286-7.771,14.286-14.286v-38.095c0-12.095-6.481-22.852-16.919-28.071l-0.967-0.357
				c-0.171-0.043-17.2-4.486-25.614-16.833l-14.148-28.295c-5.81-11.629-18.624-16.919-28.067-16.919h-59.786
				c7.733-12.686,12.167-27.471,12.167-42.857h-9.524c0,26.805-15.062,51.605-38.095,63.9v-16.281h-9.524v28.571h28.571v-9.524
				h-5.51c5.662-4.09,10.729-8.914,15.148-14.286h66.552c6.824,0,15.729,4.005,19.548,11.652l14.286,28.571l0.3,0.51
				c9.586,14.376,27.343,19.91,30.81,20.876c6.952,3.671,11.248,11.038,11.248,19.343v38.095c0,4.09-0.671,4.762-4.762,4.762
				h-19.429c-2.324-16.124-16.195-28.571-32.952-28.571c-16.757,0-30.629,12.448-32.952,28.571h-96
				c-2.324-16.124-16.195-28.571-32.952-28.571c-16.757,0-30.629,12.448-32.952,28.571H19.048c-5.071,0-9.524-4.452-9.524-9.524
				v-33.333c0-11.781,7.881-17.614,15.067-19.114l28.724-4.79c6.219-1.248,11.281-4.557,17.162-11.338l20-26.662h-9.524
				c-26.805,0-51.605-15.062-63.9-38.095h16.281v-9.524H4.762v28.571h9.524v-5.543c13.367,18.505,34.395,30.976,57.533,33.6
				l-8.748,11.676c-4.276,4.924-7.538,7.162-11.471,7.952l-28.762,4.795C9.181,188.658,0,200.1,0,214.287v33.333
				c0,10.324,8.724,19.048,19.048,19.048h14.667c2.324,16.124,16.195,28.571,32.952,28.571h90.476v-9.524H89.948
				c5.114-5.005,8.605-11.638,9.671-19.048h96c1.067,7.41,4.557,14.043,9.671,19.048h-19.576v9.524h109.524v-9.524h-43.386
				c5.119-5.004,8.605-11.638,9.672-19.047H280.953z M66.667,285.715c-13.129,0-23.81-10.681-23.81-23.81
				c0-13.129,10.681-23.81,23.81-23.81c13.129,0,23.81,10.681,23.81,23.81C90.477,275.033,79.795,285.715,66.667,285.715z
				 M228.572,285.715c-13.129,0-23.81-10.682-23.81-23.81c0-13.129,10.681-23.81,23.81-23.81c13.129,0,23.81,10.681,23.81,23.81
				C252.382,275.035,241.701,285.715,228.572,285.715z"/>
			<path d="M228.571,247.62c-7.876,0-14.286,6.41-14.286,14.286c0,7.876,6.41,14.286,14.286,14.286
				c7.876,0,14.286-6.41,14.286-14.286C242.857,254.03,236.448,247.62,228.571,247.62z M228.571,266.668
				c-2.629,0-4.762-2.133-4.762-4.762c0-2.629,2.133-4.762,4.762-4.762c2.629,0,4.762,2.133,4.762,4.762
				C233.333,264.535,231.2,266.668,228.571,266.668z"/>
			<rect x="166.667" y="285.715" width="9.524" height="9.524"/>
			<rect x="23.81" y="285.715" width="9.524" height="9.524"/>
			<rect x="4.762" y="285.715" width="9.524" height="9.524"/>
			<path d="M223.81,195.238v-4.762c0-13.129-10.681-23.81-23.81-23.81h-61.905c-13.129,0-23.81,10.681-23.81,23.81h9.524
				c0-7.876,6.41-14.286,14.286-14.286H200c7.876,0,14.286,6.41,14.286,14.286v4.762c0,7.876-6.41,14.286-14.286,14.286h-45.648
				l10.919-10.919l-6.733-6.733l-22.414,22.414l22.414,22.414l6.733-6.733l-10.919-10.919H200
				C213.129,219.048,223.81,208.368,223.81,195.238z"/>
			<path d="M47.619,17.053v16.281h9.524V4.763H28.571v9.524h5.51C13.176,29.396,0,54.311,0,80.953h9.524
				C9.524,54.149,24.586,29.349,47.619,17.053z"/>
			<path d="M144.852,47.62h-16.281v9.524h28.571V28.572h-9.524v5.51C132.51,13.177,107.595,0.001,80.952,0.001v9.524
				C107.757,9.525,132.557,24.587,144.852,47.62z"/>
			<polygon points="52.381,52.382 52.381,57.482 45.381,53.105 40.333,61.181 46.671,65.139 41.352,66.915 44.362,75.944 
				57.143,71.686 71.967,80.953 57.143,90.22 44.362,85.962 41.352,94.991 46.671,96.767 40.333,100.725 45.381,108.801 
				52.381,104.425 52.381,109.525 61.905,109.525 61.905,98.472 76.19,89.543 76.19,98.415 62.857,116.191 70.476,121.905 
				76.19,114.282 76.19,128.572 85.714,128.572 85.714,114.282 91.429,121.905 99.048,116.191 85.714,98.415 85.714,89.543 
				100,98.472 100,109.525 109.524,109.525 109.524,104.425 116.524,108.801 121.571,100.725 115.233,96.767 120.552,94.991 
				117.543,85.962 104.762,90.22 89.938,80.953 104.762,71.686 117.543,75.944 120.552,66.915 115.233,65.139 121.571,61.181 
				116.524,53.105 109.524,57.482 109.524,52.382 100,52.382 100,63.434 85.714,72.363 85.714,63.491 99.048,45.715 91.429,40.001 
				85.714,47.625 85.714,33.334 76.19,33.334 76.19,47.625 70.476,40.001 62.857,45.715 76.19,63.491 76.19,72.363 61.905,63.434 
				61.905,52.382 			"/>
		</g>
	</g>
</g>
<g>
</g>
<g>
</g>
<g>
</g>
<g>
</g>
<g>
</g>
<g>
</g>
<g>
</g>
<g>
</g>
<g>
</g>
<g>
</g>
<g>
</g>
<g>
</g>
<g>
</g>
<g>
</g>
<g>
</g>
</svg>
