<?xml version="1.0" encoding="iso-8859-1"?>
<!-- Generator: Adobe Illustrator 18.0.0, SVG Export Plug-In . SVG Version: 6.00 Build 0)  -->
<!DOCTYPE svg PUBLIC "-//W3C//DTD SVG 1.1//EN" "http://www.w3.org/Graphics/SVG/1.1/DTD/svg11.dtd">
<svg version="1.1" id="Capa_1" xmlns="http://www.w3.org/2000/svg" xmlns:xlink="http://www.w3.org/1999/xlink" x="0px" y="0px"
	 viewBox="0 0 454.521 454.521" style="enable-background:new 0 0 454.521 454.521;" xml:space="preserve">
<g>
	<path d="M360.778,127.298L360.778,127.298c-13.676-3.736-27.988-1.925-40.3,5.104c-12.313,7.028-21.151,18.43-24.888,32.104
		l-27.318,99.971H165.363c-3.979,0-7.794,1.58-10.606,4.394l-95.048,95.048c-10.024,10.024-15.546,23.353-15.546,37.529
		s5.521,27.505,15.546,37.529s23.353,15.545,37.529,15.545s27.505-5.521,37.528-15.545l68.352-68.352h86.295
		c35.266,0,66.387-23.759,75.682-57.775l32.891-120.364c3.736-13.676,1.925-27.987-5.103-40.3
		C385.854,139.874,374.453,131.035,360.778,127.298z M289.413,340.625h-92.508c-3.979,0-7.794,1.58-10.606,4.394l-72.746,72.745
		c-4.357,4.358-10.151,6.758-16.314,6.758s-11.958-2.399-16.316-6.758s-6.759-10.153-6.759-16.316s2.4-11.957,6.759-16.315
		l90.654-90.655h108.147c6.762,0,12.688-4.523,14.47-11.046l30.337-111.018c3.353-12.273,16.063-19.531,28.341-16.176h-0.001
		c12.273,3.354,19.53,16.067,16.176,28.34l-32.891,120.365C330.415,325.951,311.194,340.625,289.413,340.625z"/>
	<path d="M352.856,115.006c31.707,0,57.503-25.796,57.503-57.503S384.563,0,352.856,0s-57.503,25.796-57.503,57.503
		S321.149,115.006,352.856,115.006z M352.856,30c15.165,0,27.503,12.338,27.503,27.503s-12.338,27.503-27.503,27.503
		s-27.503-12.338-27.503-27.503S337.691,30,352.856,30z"/>
	<path d="M93.468,73.292H214.89c0.115,0,0.226-0.015,0.34-0.017v18.417c0,6.919,8.365,10.384,13.257,5.492l33.427-33.427
		c3.033-3.033,3.033-7.95,0-10.983l-33.427-33.427c-4.892-4.893-13.257-1.427-13.257,5.491v18.472
		c-0.114-0.002-0.225-0.017-0.34-0.017H93.468c-8.284,0-15,6.716-15,15S85.184,73.292,93.468,73.292z"/>
</g>
<g>
</g>
<g>
</g>
<g>
</g>
<g>
</g>
<g>
</g>
<g>
</g>
<g>
</g>
<g>
</g>
<g>
</g>
<g>
</g>
<g>
</g>
<g>
</g>
<g>
</g>
<g>
</g>
<g>
</g>
</svg>
