<?xml version="1.0" encoding="iso-8859-1"?>
<!-- Generator: Adobe Illustrator 19.0.0, SVG Export Plug-In . SVG Version: 6.00 Build 0)  -->
<svg version="1.1" id="Layer_1" xmlns="http://www.w3.org/2000/svg" xmlns:xlink="http://www.w3.org/1999/xlink" x="0px" y="0px"
	 viewBox="0 0 512 512" style="enable-background:new 0 0 512 512;" xml:space="preserve">
<g>
	<g>
		<path style="fill:#34485C;" d="M507.586,44.138c0,24.373-19.765,44.138-44.138,44.138c-24.373,0-44.138-19.765-44.138-44.138
			S439.075,0,463.448,0C487.821,0,507.586,19.765,507.586,44.138"/>
		<path style="fill:#34485C;" d="M367.802,151.257l-48.87,141.639c-3.24,9.384-12.57,15.263-22.44,14.124l-89.538-10.284
			c-8.766-1.095-16.993,4.414-19.315,12.932l-58.73,170.178c-2.18,7.998-0.468,16.87,5.411,22.713
			c17.373,17.276,41.498,8.925,47.289-9.613l49.646-121.706c2.622-8.404,11.008-13.603,19.694-12.235l133.438,18.22
			c10.037,1.368,19.633-4.555,22.908-14.133l60.646-177.443c9.869-28.866-6.638-60.072-36.043-68.167l0,0
			C404.966,110.068,376.912,124.854,367.802,151.257"/>
	</g>
	<polygon style="fill:#74B73E;" points="313.379,79.448 233.931,0 233.931,44.138 92.69,44.138 92.69,114.759 233.931,114.759 
		233.931,158.897 	"/>
	<path style="fill:#94CAFF;" d="M189.793,264.827L189.793,264.827c-60.195-11.847-119.305-11.697-176.552,0l0,0l-8.828-88.276
		c54.175-11.794,141.506-11.75,194.207,0L189.793,264.827z"/>
	<g>
		<path style="fill:#4897F7;" d="M136.827,335.447c-2.348,0-4.687-0.927-6.426-2.772c-3.337-3.549-3.178-9.137,0.371-12.482
			c3.858-3.637,14.883-16.746,14.883-28.884c0-6.126-3.046-12.332-5.738-17.805c-0.927-1.88-1.792-3.646-2.463-5.226
			c-0.115-0.291-0.23-0.583-0.318-0.874c-0.477-1.05-1.033-2.18-1.615-3.381c-3.169-6.497-7.521-15.413-7.521-25.679
			c0-10.266,4.343-19.165,7.521-25.662c0.759-1.545,1.457-2.975,2.013-4.273c1.898-4.484,7.071-6.594,11.573-4.67
			c4.484,1.907,6.577,7.089,4.67,11.573c-0.653,1.554-1.492,3.275-2.392,5.12c-2.684,5.5-5.729,11.732-5.729,17.911
			c0,6.188,3.046,12.429,5.729,17.938c0.9,1.845,1.739,3.566,2.392,5.111c0.124,0.291,0.23,0.574,0.318,0.865
			c0.494,1.077,1.059,2.233,1.668,3.46c3.178,6.479,7.548,15.351,7.548,25.591c0,22.237-19.597,40.951-20.427,41.737
			C141.179,334.653,138.999,335.447,136.827,335.447"/>
		<path style="fill:#4897F7;" d="M92.69,335.447c-2.348,0-4.687-0.927-6.426-2.772c-3.337-3.549-3.178-9.137,0.371-12.482
			c3.858-3.637,14.883-16.746,14.883-28.884c0-6.126-3.046-12.332-5.738-17.805c-0.927-1.88-1.792-3.646-2.463-5.226
			c-0.115-0.291-0.23-0.583-0.318-0.874c-0.477-1.05-1.033-2.18-1.615-3.381c-3.169-6.497-7.521-15.413-7.521-25.679
			c0-10.266,4.343-19.165,7.521-25.662c0.75-1.545,1.457-2.975,2.013-4.273c1.898-4.484,7.08-6.594,11.573-4.67
			c4.484,1.907,6.577,7.089,4.67,11.573c-0.653,1.554-1.492,3.275-2.392,5.12c-2.684,5.5-5.729,11.732-5.729,17.911
			c0,6.188,3.046,12.429,5.729,17.938c0.9,1.845,1.739,3.566,2.392,5.111c0.124,0.291,0.23,0.574,0.318,0.865
			c0.494,1.077,1.059,2.233,1.668,3.46c3.178,6.479,7.548,15.351,7.548,25.591c0,22.237-19.597,40.951-20.427,41.737
			C97.042,334.653,94.861,335.447,92.69,335.447"/>
		<path style="fill:#4897F7;" d="M48.552,335.447c-2.348,0-4.687-0.927-6.426-2.772c-3.337-3.549-3.178-9.137,0.371-12.482
			c3.858-3.637,14.883-16.746,14.883-28.884c0-6.126-3.046-12.332-5.738-17.805c-0.927-1.88-1.792-3.646-2.463-5.226
			c-0.115-0.291-0.23-0.583-0.318-0.874c-0.477-1.05-1.033-2.18-1.615-3.381c-3.169-6.497-7.521-15.413-7.521-25.679
			c0-10.266,4.343-19.165,7.521-25.662c0.75-1.545,1.457-2.975,2.013-4.273c1.898-4.484,7.071-6.594,11.573-4.67
			c4.484,1.907,6.577,7.089,4.67,11.573c-0.653,1.554-1.492,3.275-2.392,5.12c-2.684,5.5-5.729,11.732-5.729,17.911
			c0,6.188,3.046,12.429,5.729,17.938c0.9,1.845,1.739,3.566,2.392,5.111c0.124,0.291,0.23,0.574,0.318,0.865
			c0.494,1.077,1.059,2.233,1.668,3.46c3.178,6.479,7.548,15.351,7.548,25.591c0,22.237-19.597,40.951-20.427,41.737
			C52.904,334.653,50.723,335.447,48.552,335.447"/>
	</g>
</g>
<g>
</g>
<g>
</g>
<g>
</g>
<g>
</g>
<g>
</g>
<g>
</g>
<g>
</g>
<g>
</g>
<g>
</g>
<g>
</g>
<g>
</g>
<g>
</g>
<g>
</g>
<g>
</g>
<g>
</g>
</svg>
