<?xml version="1.0" encoding="iso-8859-1"?>
<!-- Generator: Adobe Illustrator 18.0.0, SVG Export Plug-In . SVG Version: 6.00 Build 0)  -->
<!DOCTYPE svg PUBLIC "-//W3C//DTD SVG 1.1//EN" "http://www.w3.org/Graphics/SVG/1.1/DTD/svg11.dtd">
<svg version="1.1" id="Capa_1" xmlns="http://www.w3.org/2000/svg" xmlns:xlink="http://www.w3.org/1999/xlink" x="0px" y="0px"
	 viewBox="0 0 490.001 490.001" style="enable-background:new 0 0 490.001 490.001;" xml:space="preserve">
<g>
	<path d="M485.607,150.221c-31.245-31.245-67.633-55.777-108.154-72.916c-41.959-17.747-86.523-26.746-132.452-26.746
		c-45.93,0-90.494,8.999-132.454,26.746c-40.521,17.14-76.909,41.673-108.154,72.918c-4.85,4.851-5.792,12.373-2.288,18.27
		l116,195.195c2.704,4.549,7.604,7.337,12.895,7.337h14.386c1.864,6.991,4.364,13.725,6.786,20.24
		c2.314,6.224,4.5,12.103,5.995,17.789c1.464,5.566,2.175,10.6,2.175,15.388c0,8.284,6.716,15,15,15s15-6.716,15-15
		c0-7.397-1.034-14.927-3.162-23.016c-1.872-7.122-4.423-13.982-6.89-20.616c-1.247-3.354-2.453-6.606-3.538-9.785l46.124,0
		c1.862,6.987,4.363,13.724,6.786,20.241c2.314,6.224,4.5,12.103,5.995,17.788c1.464,5.568,2.175,10.603,2.175,15.389
		c0,8.284,6.716,15,15,15c8.284,0,15-6.716,15-15c0-7.396-1.034-14.924-3.162-23.016c-1.872-7.122-4.423-13.982-6.89-20.616
		c-1.248-3.355-2.454-6.607-3.538-9.786l46.124,0c1.862,6.988,4.363,13.725,6.786,20.241c2.313,6.222,4.499,12.099,5.995,17.788
		c1.464,5.568,2.175,10.603,2.175,15.389c0,8.284,6.716,15,15,15s15-6.716,15-15c0-7.396-1.034-14.924-3.162-23.017
		c-1.874-7.126-4.424-13.983-6.89-20.615c-1.248-3.355-2.454-6.607-3.538-9.786H359c5.292,0,10.191-2.788,12.895-7.337l116-195.196
		C491.4,162.594,490.457,155.072,485.607,150.221z M327.544,341.024c0.356-2.797,0.927-5.704,1.736-8.778
		c1.494-5.684,3.68-11.563,5.995-17.788c2.466-6.632,5.016-13.489,6.89-20.616c2.127-8.092,3.162-15.62,3.162-23.016
		c0-7.395-1.034-14.923-3.162-23.017c-0.958-3.643-2.094-7.216-3.304-10.726h12.42c5.694,0,8.546-6.884,4.519-10.911l-27.511-27.511
		c-2.496-2.496-6.543-2.496-9.039,0l-27.511,27.511c-4.026,4.026-1.175,10.911,4.519,10.911h10.719
		c0.062,0.188,0.109,0.379,0.179,0.566c2.314,6.224,4.5,12.102,5.995,17.787c1.464,5.569,2.176,10.604,2.176,15.389
		c0,4.786-0.711,9.82-2.175,15.388c-1.497,5.69-3.682,11.567-5.995,17.789c-2.467,6.635-5.019,13.497-6.89,20.616
		c-1.498,5.699-2.443,11.115-2.877,16.405l-47.335,0c0.356-2.797,0.927-5.704,1.736-8.779c1.494-5.684,3.68-11.563,5.995-17.788
		c2.467-6.634,5.018-13.494,6.89-20.616c2.127-8.092,3.162-15.62,3.162-23.016c0-7.395-1.034-14.923-3.162-23.016
		c-0.957-3.642-2.093-7.215-3.304-10.727h11.143c5.694,0,8.546-6.884,4.519-10.911l-27.511-27.511c-2.496-2.496-6.543-2.496-9.039,0
		l-27.511,27.511c-4.026,4.026-1.175,10.911,4.519,10.911h11.996c0.062,0.188,0.109,0.379,0.179,0.566
		c2.315,6.226,4.501,12.105,5.995,17.787c1.464,5.569,2.176,10.604,2.176,15.389c0,4.786-0.711,9.82-2.175,15.389
		c-1.495,5.686-3.681,11.563-5.995,17.788c-2.467,6.635-5.019,13.497-6.89,20.616c-1.498,5.699-2.443,11.116-2.877,16.406l-47.335,0
		c0.356-2.797,0.927-5.704,1.735-8.778c1.496-5.688,3.681-11.566,5.995-17.789c2.467-6.634,5.018-13.494,6.89-20.615
		c2.127-8.09,3.162-15.619,3.162-23.017c0-7.396-1.034-14.926-3.162-23.016c-0.957-3.642-2.093-7.215-3.304-10.727h9.866
		c5.694,0,8.546-6.884,4.519-10.911l-27.511-27.511c-2.496-2.496-6.543-2.496-9.039,0l-27.511,27.511
		c-4.026,4.026-1.175,10.911,4.519,10.911h13.272c0.062,0.188,0.109,0.379,0.179,0.566c2.315,6.226,4.501,12.105,5.995,17.788
		c1.464,5.567,2.175,10.601,2.175,15.388c0,4.788-0.711,9.821-2.175,15.389c-1.495,5.686-3.681,11.563-5.995,17.788
		c-2.466,6.633-5.017,13.491-6.89,20.616c-1.498,5.699-2.443,11.116-2.877,16.406h-2.87L33.964,163.378
		c57.552-53.497,132.041-82.819,211.038-82.819c78.995,0,153.482,29.321,211.035,82.817L350.466,341.024H327.544z"/>
</g>
<g>
</g>
<g>
</g>
<g>
</g>
<g>
</g>
<g>
</g>
<g>
</g>
<g>
</g>
<g>
</g>
<g>
</g>
<g>
</g>
<g>
</g>
<g>
</g>
<g>
</g>
<g>
</g>
<g>
</g>
</svg>
